<svg width="120" height="122" fill="none" xmlns="http://www.w3.org/2000/svg"><circle cx="60" cy="62" r="60" fill="url(#xpzz8h7hda)"/><circle cx="60" cy="62" r="59" stroke="url(#25bz59svbb)" stroke-width="2"/><ellipse opacity=".523" cx="57.279" cy="110.922" rx="54.313" ry="10.022" transform="rotate(.974 57.28 110.922)" fill="url(#krd3qe5jvc)"/><path d="M105.154 36L59 62.82" stroke="url(#qsdbh2adbd)" stroke-width="2"/><path d="M59.92 91v17L36 101.621v-17L59.92 91z" fill="#17253D"/><path d="M0 72.344v28.636l59.676 15.665 59.675-15.914V72.344H0z" fill="url(#lk0d21xore)"/><path opacity=".829" d="M0 72.344v28.636l59.676 15.665 59.675-15.914V72.344H0z" fill="url(#3568gtcurf)"/><path opacity=".541" d="M0 72.344v28.636l59.676 15.665 59.675-15.914V72.344H0z" fill="url(#510t52dm7g)"/><path d="M59.676 116.645V88.257l59.675-15.913v28.387l-59.675 15.914z" fill="url(#aeh6oj35zh)"/><path opacity=".581" d="M59.676 116.645V88.257l59.675-15.913v28.387l-59.675 15.914z" fill="url(#5qa6s539hi)"/><path d="M87.942 80.339l3.742 28.066" stroke="url(#u868r9qluj)" stroke-opacity=".19" stroke-width="2.495"/><path d="M59.676 56.43L0 72.344l59.676 15.913 59.675-15.913L59.676 56.43z" fill="url(#8uve96fcnk)"/><path opacity=".829" d="M59.676 56.43L0 72.344l59.676 15.913 59.675-15.913L59.676 56.43z" fill="url(#721l43jbsl)"/><path opacity=".581" d="M59.676 56.43L0 72.344l59.676 15.913 59.675-15.913L59.676 56.43z" fill="url(#p8gdv48rfm)" fill-opacity=".5"/><path d="M59.676 84.279L14.919 72.344l44.757-11.935 44.756 11.935-44.756 11.935z" fill="#16233A"/><path fill-rule="evenodd" clip-rule="evenodd" d="M0 72.042v8.215l30.087 8.023v-8.215L0 72.042zm29.838 8.215v7.698L.249 80.065v-7.699l29.589 7.89z" fill="url(#49xnj9qc5n)"/><path fill-rule="evenodd" clip-rule="evenodd" d="M29.93 64.104a.125.125 0 01.065 0l29.837 7.957a.125.125 0 010 .241l-29.837 7.957a.125.125 0 01-.065 0L.093 72.302a.125.125 0 010-.241l29.837-7.957zM.61 72.182l29.353 7.827 29.354-7.828-29.354-7.827L.61 72.182z" fill="url(#1p58axhwro)"/><ellipse cx="89" cy="116" rx="13" ry="3" fill="url(#afe6e54hcp)" fill-opacity=".3"/><path d="M89.19 66.617c3.741 0 8.232-1.995 11.226 2.495 3.742 5.614-19.959 5.614-19.959 8.108 0 2.495 6.237 1.871 8.108 3.743C92.202 84.599 99.108 113.876 91 114.5c-4.366.336-6.8.142-7.424-4.224" stroke="url(#a88qdyxf6q)" stroke-width="1.871"/><path d="M59.675 79.314l-29.837-7.957L59.674 63.4l29.838 7.957-29.838 7.957z" fill="#A6A6A6"/><path d="M59.676 72.314l-29.838-7.957L59.676 56.4l29.837 7.957-29.837 7.957z" fill="url(#b4wmfi8yrr)"/><path d="M59.676 71.913l-29.838-7.956L59.676 56l29.837 7.957-29.837 7.956z" fill="url(#ly78zbu3ks)"/><path d="M56.438 68.118L43.452 64.87c-.378-.094-.378-.631 0-.726L56.438 60.9a12.474 12.474 0 016.05 0l12.987 3.246c.378.095.378.632 0 .726l-12.986 3.247a12.474 12.474 0 01-6.05 0z" fill="#16233A"/><g filter="url(#rkf62gvkmt)"><path fill-rule="evenodd" clip-rule="evenodd" d="M59.227 61.994a3.208 3.208 0 011.546 0l7.848 1.952a.461.461 0 010 .908l-7.848 1.952a3.208 3.208 0 01-1.546 0l-7.848-1.952a.461.461 0 010-.908l7.848-1.952zm1.344.68a2.372 2.372 0 00-1.142 0L52.492 64.4l6.937 1.725c.374.093.768.093 1.142 0l6.937-1.725-6.937-1.725z" fill="url(#6v80nk1gku)"/></g><path d="M59.675 71.854v7.957l-29.837-7.957v-7.957l29.837 7.957z" fill="url(#4sscjb0otv)"/><path opacity=".829" d="M59.675 71.854v7.957l-29.837-7.957v-7.957l29.837 7.957z" fill="url(#degohogaaw)" fill-opacity=".5"/><path opacity=".829" d="M59.675 71.854v7.957l-29.837-7.957v-7.957l29.837 7.957z" fill="url(#01acdnuyhx)"/><path d="M59.676 71.857v7.957l29.837-7.957V63.9l-29.837 7.957z" fill="url(#835sa0adqy)"/><path opacity=".581" d="M59.7 71.857v7.957l29.838-7.957V63.9L59.7 71.857z" fill="url(#cfg9bufv5z)"/><path fill-rule="evenodd" clip-rule="evenodd" d="M29.7 63.753v6.572l24.07 6.419v-6.572L29.7 63.753zm23.87 6.572v6.16L29.9 70.171v-6.159l23.67 6.312z" fill="url(#lcvi2tzuxA)"/><path fill-rule="evenodd" clip-rule="evenodd" d="M53.644 57.403a.1.1 0 01.052 0l23.87 6.366a.1.1 0 010 .193l-23.87 6.365a.1.1 0 01-.052 0l-23.87-6.365a.1.1 0 010-.193l23.87-6.366zm-23.457 6.462l23.483 6.262 23.483-6.262-23.483-6.262-23.483 6.262z" fill="url(#10kl7qp53B)"/><path d="M104.404 36.239l2.249 24.141-47.402 28.69" stroke="url(#fjoxber3pC)" stroke-width="2"/><path d="M59.5 89L78 83" stroke="url(#n8fcl61t8D)"/><path d="M59.5 89v26.5" stroke="url(#ohjzh1q1gE)"/><path d="M59.5 89l-23-6.5" stroke="url(#m379335doF)"/><circle r="2.934" transform="matrix(0 1 1 0 58.78 88.919)" fill="#EABBFF"/><circle r="3.715" transform="scale(1 -1) rotate(-68 8.4 -108.885)" fill="#B177CB"/><circle r="2.884" transform="scale(1 -1) rotate(-68 25.42 -95.877)" fill="#B177CB"/><path d="M59.675 62.373l-29.837-7.957 29.837-7.957 29.838 7.957-29.838 7.957z" fill="#A6A6A6"/><path d="M59.676 54.913l-29.838-7.956L59.676 39l29.837 7.957-29.837 7.956z" fill="url(#zl1zwzjgxG)"/><path d="M59.838 54.913L30 46.957 59.838 39l29.838 7.957-29.838 7.956z" fill="url(#oqcutm2jdH)"/><path d="M56.85 50.718L43.864 47.47c-.378-.094-.378-.631 0-.726l12.986-3.246a12.474 12.474 0 016.05 0l12.987 3.246c.377.095.377.632 0 .726L62.9 50.718a12.473 12.473 0 01-6.051 0z" fill="#16233A"/><g filter="url(#gn96krf0tI)"><path fill-rule="evenodd" clip-rule="evenodd" d="M59.227 44.594a3.208 3.208 0 011.546 0l7.848 1.952a.461.461 0 010 .908l-7.848 1.952a3.208 3.208 0 01-1.546 0l-7.848-1.952a.461.461 0 010-.908l7.848-1.952zm1.344.68a2.372 2.372 0 00-1.142 0L52.492 47l6.937 1.725c.374.093.768.093 1.142 0L67.508 47l-6.937-1.725z" fill="url(#2m657kznbJ)"/></g><path d="M59.676 54.913v7.957l-29.838-7.956v-7.957l29.838 7.956z" fill="url(#epf0h1puqK)"/><path opacity=".829" d="M59.675 54.913v7.957l-29.837-7.956v-7.957l29.837 7.956z" fill="url(#i7rzkc8f5L)" fill-opacity=".5"/><path opacity=".829" d="M59.675 54.913v7.957l-29.837-7.956v-7.957l29.837 7.956z" fill="url(#wec7he2oqM)"/><path d="M59.676 54.913v7.957l29.837-7.956v-7.957l-29.837 7.956z" fill="url(#wgweijst4N)"/><path opacity=".581" d="M59.676 54.913v7.957l29.837-7.956v-7.957l-29.837 7.956z" fill="url(#f9r9oi0wsO)"/><path fill-rule="evenodd" clip-rule="evenodd" d="M29.7 46.853v6.572l24.07 6.419v-6.572L29.7 46.853zm23.87 6.572v6.16L29.9 53.271v-6.159l23.67 6.312z" fill="url(#3xzy2wpnyP)"/><path fill-rule="evenodd" clip-rule="evenodd" d="M53.644 40.503a.1.1 0 01.052 0l23.87 6.366a.1.1 0 010 .193l-23.87 6.365a.1.1 0 01-.052 0l-23.87-6.365a.1.1 0 010-.193l23.87-6.366zm-23.457 6.462l23.483 6.262 23.483-6.262-23.483-6.262-23.483 6.262z" fill="url(#pwu946jlcQ)"/><path d="M59.675 45.373l-29.837-7.957 29.837-7.957 29.838 7.957-29.838 7.957z" fill="#A6A6A6"/><path d="M59.676 37.913l-29.838-7.956L59.676 22l29.837 7.957-29.837 7.956z" fill="url(#vpa53izirR)"/><path d="M59.676 37.913l-29.838-7.956L59.676 22l29.837 7.957-29.837 7.956z" fill="url(#al5rytwc6S)"/><g filter="url(#9ay5dv7dwT)"><path d="M58.177 34.05l-14.313-3.58c-.378-.094-.378-.631 0-.726l14.313-3.578a7.002 7.002 0 013.396 0l14.314 3.578c.377.095.377.632 0 .726l-14.314 3.58a7.002 7.002 0 01-3.396 0z" fill="url(#qwlu6k2vxU)"/></g><path d="M59.676 37.913v7.957l-29.838-7.956v-7.957l29.838 7.956z" fill="url(#2f01cu265V)"/><path opacity=".829" d="M59.675 37.913v7.957l-29.837-7.956v-7.957l29.837 7.956z" fill="url(#gqil327l0W)" fill-opacity=".5"/><path opacity=".829" d="M59.675 37.913v7.957l-29.837-7.956v-7.957l29.837 7.956z" fill="url(#ozeig93cgX)"/><path d="M59.676 37.913v7.957l29.837-7.956v-7.957l-29.837 7.956z" fill="url(#bsvwzh1plY)"/><path opacity=".581" d="M59.676 37.913v7.957l29.837-7.956v-7.957l-29.837 7.956z" fill="url(#ypndnwr7oZ)"/><path fill-rule="evenodd" clip-rule="evenodd" d="M29.7 29.853v6.572l24.07 6.419v-6.572L29.7 29.853zm23.87 6.572v6.16L29.9 36.271v-6.159l23.67 6.312z" fill="url(#dp1n92zesaa)"/><path fill-rule="evenodd" clip-rule="evenodd" d="M53.644 23.503a.1.1 0 01.052 0l23.87 6.366a.1.1 0 010 .193l-23.87 6.365a.1.1 0 01-.052 0l-23.87-6.365a.1.1 0 010-.193l23.87-6.366zm-23.457 6.462l23.483 6.262 23.483-6.262-23.483-6.262-23.483 6.262z" fill="url(#46zymlcywab)"/><path d="M59.675 27.373l-29.837-7.957 29.837-7.957 29.838 7.957-29.838 7.957z" fill="#A6A6A6"/><path d="M59.675 19.913l-29.837-7.956L59.675 4l29.838 7.957-29.838 7.956z" fill="url(#mffyn2lppac)"/><path opacity=".829" d="M59.675 19.913l-29.837-7.956L59.675 4l29.838 7.957-29.838 7.956z" fill="url(#bsmb1ijq0ad)"/><g filter="url(#h0hvn7h0sae)"><path d="M57.38 13.355l-.623-3.742 8.732 1.248-8.109 2.494z" fill="url(#v6udvw3acaf)"/></g><path d="M59.675 19.913v7.957l-29.837-7.957v-7.956l29.837 7.956z" fill="url(#ojtfidaveag)"/><path opacity=".829" d="M59.675 19.913v7.957l-29.837-7.957v-7.956l29.837 7.956z" fill="url(#2nrs9o93mah)"/><path d="M59.675 19.913v7.957l29.838-7.957v-7.956l-29.838 7.956z" fill="url(#tld9yroviai)"/><path opacity=".581" d="M59.675 19.913v7.957l29.838-7.957v-7.956l-29.838 7.956z" fill="url(#3r1dcxw7eaj)"/><path fill-rule="evenodd" clip-rule="evenodd" d="M58.318 6.594a5.23 5.23 0 012.715 0l16.318 4.394c.736.198.736 1.242 0 1.44l-16.318 4.394c-.89.24-1.826.24-2.715 0L42 12.428c-.736-.198-.736-1.242 0-1.44l16.318-4.394zm2.586.48a4.724 4.724 0 00-2.457 0L42.13 11.469c-.245.066-.245.414 0 .48l16.318 4.393a4.724 4.724 0 002.457 0l16.318-4.393c.245-.066.245-.414 0-.48L60.904 7.075z" fill="url(#r1u63czh9ak)"/><g filter="url(#9f774zgcwal)"><path fill-rule="evenodd" clip-rule="evenodd" d="M24.254 14.24l5.658-1.508.128.48-5.658 1.509c-.246.066-.246.415 0 .48l35.432 9.449 35.431-9.448c.246-.066.246-.415 0-.481l-5.657-1.509.128-.48 5.657 1.509c.739.196.739 1.244 0 1.441l-35.56 9.482-35.559-9.482c-.738-.197-.738-1.245 0-1.441z" fill="url(#8kh59arbvam)"/></g><g filter="url(#v4aj397c0an)"><path fill-rule="evenodd" clip-rule="evenodd" d="M29.479 16.453a.995.995 0 11-1.99 0 .995.995 0 011.99 0zm40.778 5.968a.995.995 0 11-1.99 0 .995.995 0 011.99 0zm20.886-4.973a.995.995 0 100-1.99.995.995 0 000 1.99z" fill="url(#lk5otrgx0ao)"/></g><path fill-rule="evenodd" clip-rule="evenodd" d="M29.7 11.853v6.572l24.07 6.419v-6.572L29.7 11.853zm23.87 6.572v6.16L29.9 18.271v-6.159l23.67 6.312z" fill="url(#xtf5a22wrap)"/><path fill-rule="evenodd" clip-rule="evenodd" d="M53.644 5.503a.1.1 0 01.052 0l23.87 6.366a.1.1 0 010 .193l-23.87 6.365a.1.1 0 01-.052 0l-23.87-6.365a.1.1 0 010-.193l23.87-6.366zm-23.457 6.462l23.483 6.262 23.483-6.262L53.67 5.703l-23.483 6.262z" fill="url(#0coufm181aq)"/><defs><linearGradient id="xpzz8h7hda" x1="13" y1="17" x2="79" y2="118" gradientUnits="userSpaceOnUse"><stop stop-color="#8E5DBC"/><stop offset="1" stop-color="#483181"/></linearGradient><linearGradient id="25bz59svbb" x1="-25.227" y1="24.708" x2="4.038" y2="136.632" gradientUnits="userSpaceOnUse"><stop stop-color="#C47EDD"/><stop offset="1" stop-color="#7850D1"/></linearGradient><linearGradient id="qsdbh2adbd" x1="73" y1="51" x2="102.148" y2="39.07" gradientUnits="userSpaceOnUse"><stop stop-color="#684F95" stop-opacity="0"/><stop offset="1" stop-color="#8B60ED"/></linearGradient><linearGradient id="lk0d21xore" x1="-16.84" y1="72.212" x2="54.262" y2="101.545" gradientUnits="userSpaceOnUse"><stop stop-color="#6BA0E2"/><stop offset="1" stop-color="#283D5D"/></linearGradient><linearGradient id="aeh6oj35zh" x1="4.989" y1="67.859" x2="50.747" y2="136.684" gradientUnits="userSpaceOnUse"><stop stop-color="#2B436F"/><stop offset="1" stop-color="#142035"/></linearGradient><linearGradient id="5qa6s539hi" x1="55.5" y1="74.5" x2="81.513" y2="101.404" gradientUnits="userSpaceOnUse"><stop stop-color="#D12A6F"/><stop offset="1" stop-color="#83234B" stop-opacity=".01"/></linearGradient><linearGradient id="u868r9qluj" x1="87.318" y1="75.973" x2="91.684" y2="107.782" gradientUnits="userSpaceOnUse"><stop stop-color="#010203"/><stop offset="1" stop-color="#010203" stop-opacity="0"/></linearGradient><linearGradient id="8uve96fcnk" x1="-19.958" y1="64.746" x2="8.31" y2="116.277" gradientUnits="userSpaceOnUse"><stop stop-color="#6BA0E2"/><stop offset="1" stop-color="#172741"/></linearGradient><linearGradient id="49xnj9qc5n" x1="2.096" y1="71.732" x2="3.234" y2="78.712" gradientUnits="userSpaceOnUse"><stop stop-color="#fff"/><stop offset="1" stop-color="#F44880" stop-opacity=".01"/></linearGradient><linearGradient id="1p58axhwro" x1="1.067" y1="78.651" x2="25.592" y2="71.337" gradientUnits="userSpaceOnUse"><stop stop-color="#fff"/><stop offset="1" stop-color="#F44880" stop-opacity=".01"/></linearGradient><linearGradient id="a88qdyxf6q" x1="91.06" y1="74.725" x2="90.637" y2="116.547" gradientUnits="userSpaceOnUse"><stop stop-color="#1F2F4A"/><stop offset="1" stop-color="#17253C"/></linearGradient><linearGradient id="b4wmfi8yrr" x1="20.841" y1="68.595" x2="29.122" y2="92.895" gradientUnits="userSpaceOnUse"><stop stop-color="#6BA0E2"/><stop offset="1" stop-color="#385076"/></linearGradient><linearGradient id="ly78zbu3ks" x1="34.5" y1="61.9" x2="85" y2="64.4" gradientUnits="userSpaceOnUse"><stop stop-color="#40416F"/><stop offset="1" stop-color="#213456"/></linearGradient><linearGradient id="6v80nk1gku" x1="43.819" y1="64.4" x2="43.819" y2="73.39" gradientUnits="userSpaceOnUse"><stop stop-color="#fff"/><stop offset="1" stop-color="#C42E6C"/></linearGradient><linearGradient id="4sscjb0otv" x1="29.937" y1="63.761" x2="60.145" y2="71.424" gradientUnits="userSpaceOnUse"><stop stop-color="#6BA0E2"/><stop offset="1" stop-color="#385076"/></linearGradient><linearGradient id="835sa0adqy" x1="49.867" y1="78.743" x2="77.829" y2="95.198" gradientUnits="userSpaceOnUse"><stop stop-color="#2B436F"/><stop offset="1" stop-color="#142035"/></linearGradient><linearGradient id="lcvi2tzuxA" x1="31.377" y1="63.505" x2="32.288" y2="69.09" gradientUnits="userSpaceOnUse"><stop stop-color="#fff"/><stop offset="1" stop-color="#F44880" stop-opacity=".01"/></linearGradient><linearGradient id="10kl7qp53B" x1="30.554" y1="69.041" x2="50.173" y2="63.19" gradientUnits="userSpaceOnUse"><stop stop-color="#fff"/><stop offset="1" stop-color="#F44880" stop-opacity=".01"/></linearGradient><linearGradient id="fjoxber3pC" x1="105.5" y1="34.5" x2="97.59" y2="86.958" gradientUnits="userSpaceOnUse"><stop stop-color="#895FE7"/><stop offset="1" stop-color="#8B60ED"/></linearGradient><linearGradient id="n8fcl61t8D" x1="60" y1="89" x2="73" y2="84" gradientUnits="userSpaceOnUse"><stop stop-color="#fff"/><stop offset="1" stop-color="#F9568B" stop-opacity="0"/></linearGradient><linearGradient id="ohjzh1q1gE" x1="60" y1="89" x2="60" y2="110.5" gradientUnits="userSpaceOnUse"><stop stop-color="#fff"/><stop offset="1" stop-color="#F9568B" stop-opacity="0"/></linearGradient><linearGradient id="m379335doF" x1="60" y1="89" x2="39.5" y2="83.5" gradientUnits="userSpaceOnUse"><stop stop-color="#fff"/><stop offset="1" stop-color="#F9568B" stop-opacity="0"/></linearGradient><linearGradient id="zl1zwzjgxG" x1="20.841" y1="51.195" x2="29.122" y2="75.495" gradientUnits="userSpaceOnUse"><stop stop-color="#6BA0E2"/><stop offset="1" stop-color="#385076"/></linearGradient><linearGradient id="oqcutm2jdH" x1="34.662" y1="44.9" x2="85.162" y2="47.4" gradientUnits="userSpaceOnUse"><stop stop-color="#40416F"/><stop offset="1" stop-color="#213456"/></linearGradient><linearGradient id="2m657kznbJ" x1="43.819" y1="47" x2="43.819" y2="55.99" gradientUnits="userSpaceOnUse"><stop stop-color="#fff"/><stop offset="1" stop-color="#C42E6C"/></linearGradient><linearGradient id="epf0h1puqK" x1="29.937" y1="46.82" x2="60.145" y2="54.484" gradientUnits="userSpaceOnUse"><stop stop-color="#6BA0E2"/><stop offset="1" stop-color="#385076"/></linearGradient><linearGradient id="wgweijst4N" x1="49.867" y1="61.8" x2="77.829" y2="78.254" gradientUnits="userSpaceOnUse"><stop stop-color="#2B436F"/><stop offset="1" stop-color="#142035"/></linearGradient><linearGradient id="3xzy2wpnyP" x1="31.377" y1="46.605" x2="32.288" y2="52.19" gradientUnits="userSpaceOnUse"><stop stop-color="#fff"/><stop offset="1" stop-color="#F44880" stop-opacity=".01"/></linearGradient><linearGradient id="pwu946jlcQ" x1="30.554" y1="52.141" x2="50.173" y2="46.29" gradientUnits="userSpaceOnUse"><stop stop-color="#fff"/><stop offset="1" stop-color="#F44880" stop-opacity=".01"/></linearGradient><linearGradient id="vpa53izirR" x1="20.841" y1="34.195" x2="29.122" y2="58.495" gradientUnits="userSpaceOnUse"><stop stop-color="#6BA0E2"/><stop offset="1" stop-color="#385076"/></linearGradient><linearGradient id="al5rytwc6S" x1="34.5" y1="27.9" x2="85" y2="30.4" gradientUnits="userSpaceOnUse"><stop stop-color="#40416F"/><stop offset="1" stop-color="#213456"/></linearGradient><linearGradient id="qwlu6k2vxU" x1="28.477" y1="30.108" x2="28.477" y2="45.807" gradientUnits="userSpaceOnUse"><stop stop-color="#fff"/><stop offset="1" stop-color="#C42E6C"/></linearGradient><linearGradient id="2f01cu265V" x1="29.937" y1="29.82" x2="60.145" y2="37.484" gradientUnits="userSpaceOnUse"><stop stop-color="#6BA0E2"/><stop offset="1" stop-color="#385076"/></linearGradient><linearGradient id="bsvwzh1plY" x1="49.867" y1="44.8" x2="77.829" y2="61.254" gradientUnits="userSpaceOnUse"><stop stop-color="#2B436F"/><stop offset="1" stop-color="#142035"/></linearGradient><linearGradient id="dp1n92zesaa" x1="31.377" y1="29.605" x2="32.288" y2="35.19" gradientUnits="userSpaceOnUse"><stop stop-color="#fff"/><stop offset="1" stop-color="#F44880" stop-opacity=".01"/></linearGradient><linearGradient id="46zymlcywab" x1="30.554" y1="35.141" x2="50.173" y2="29.29" gradientUnits="userSpaceOnUse"><stop stop-color="#fff"/><stop offset="1" stop-color="#F44880" stop-opacity=".01"/></linearGradient><linearGradient id="mffyn2lppac" x1="29.838" y1="11.957" x2="39.1" y2="30.599" gradientUnits="userSpaceOnUse"><stop stop-color="#6BA0E2"/><stop offset="1" stop-color="#385076"/></linearGradient><linearGradient id="v6udvw3acaf" x1="53.273" y1="11.484" x2="53.273" y2="18.213" gradientUnits="userSpaceOnUse"><stop stop-color="#fff"/><stop offset="1" stop-color="#C42E6C"/></linearGradient><linearGradient id="ojtfidaveag" x1="27.103" y1="10.465" x2="54.054" y2="3.359" gradientUnits="userSpaceOnUse"><stop stop-color="#6BA0E2"/><stop offset="1" stop-color="#385076"/></linearGradient><linearGradient id="tld9yroviai" x1="49.867" y1="26.8" x2="77.828" y2="43.254" gradientUnits="userSpaceOnUse"><stop stop-color="#2B436F"/><stop offset="1" stop-color="#142035"/></linearGradient><linearGradient id="r1u63czh9ak" x1="26.903" y1="11.708" x2="26.903" y2="30.742" gradientUnits="userSpaceOnUse"><stop stop-color="#1F3050"/><stop offset="1" stop-color="#200733"/></linearGradient><linearGradient id="8kh59arbvam" x1="-5.115" y1="18.948" x2="-5.115" y2="41.301" gradientUnits="userSpaceOnUse"><stop stop-color="#fff"/><stop offset="1" stop-color="#C42E6C"/></linearGradient><linearGradient id="lk5otrgx0ao" x1="1.697" y1="19.437" x2="1.697" y2="33.743" gradientUnits="userSpaceOnUse"><stop stop-color="#fff"/><stop offset="1" stop-color="#C42E6C"/></linearGradient><linearGradient id="xtf5a22wrap" x1="31.377" y1="11.605" x2="32.288" y2="17.189" gradientUnits="userSpaceOnUse"><stop stop-color="#fff"/><stop offset="1" stop-color="#F44880" stop-opacity=".01"/></linearGradient><linearGradient id="0coufm181aq" x1="30.554" y1="17.141" x2="50.173" y2="11.29" gradientUnits="userSpaceOnUse"><stop stop-color="#fff"/><stop offset="1" stop-color="#F44880" stop-opacity=".01"/></linearGradient><radialGradient id="krd3qe5jvc" cx="0" cy="0" r="1" gradientUnits="userSpaceOnUse" gradientTransform="matrix(53.0091 0 0 9.78149 59.56 107.034)"><stop/><stop offset="1" stop-opacity=".01"/></radialGradient><radialGradient id="3568gtcurf" cx="0" cy="0" r="1" gradientUnits="userSpaceOnUse" gradientTransform="matrix(50.70061 38.06018 -46.50657 61.9522 -27 56)"><stop stop-color="#fff"/><stop offset="1" stop-color="#83234B" stop-opacity=".01"/></radialGradient><radialGradient id="510t52dm7g" cx="0" cy="0" r="1" gradientUnits="userSpaceOnUse" gradientTransform="matrix(35.55254 18.24463 -17.74186 34.57281 60 87)"><stop stop-color="#B071BF"/><stop offset="1" stop-color="#8B60EC" stop-opacity=".01"/></radialGradient><radialGradient id="721l43jbsl" cx="0" cy="0" r="1" gradientUnits="userSpaceOnUse" gradientTransform="rotate(23.749 -139.667 4.59) scale(51.1054 55.1001)"><stop stop-color="#fff"/><stop offset="1" stop-color="#83234B" stop-opacity=".01"/></radialGradient><radialGradient id="p8gdv48rfm" cx="0" cy="0" r="1" gradientUnits="userSpaceOnUse" gradientTransform="matrix(61.49998 -32 52.95521 101.77328 53.5 88)"><stop stop-color="#D12A6F"/><stop offset="1" stop-color="#83234B" stop-opacity=".01"/></radialGradient><radialGradient id="afe6e54hcp" cx="0" cy="0" r="1" gradientUnits="userSpaceOnUse" gradientTransform="matrix(0 2.42857 -17.218 0 89 116)"><stop stop-color="#080F1A"/><stop offset="1" stop-color="#0F2638" stop-opacity=".01"/></radialGradient><radialGradient id="degohogaaw" cx="0" cy="0" r="1" gradientUnits="userSpaceOnUse" gradientTransform="matrix(34.3035 24.94802 -36.18758 49.75788 16.84 60.306)"><stop stop-color="#fff"/><stop offset="1" stop-color="#83234B" stop-opacity=".01"/></radialGradient><radialGradient id="01acdnuyhx" cx="0" cy="0" r="1" gradientUnits="userSpaceOnUse" gradientTransform="rotate(131.398 17.408 44.95) scale(13.4401 16.7504)"><stop stop-color="#fff"/><stop offset="1" stop-color="#83234B" stop-opacity=".01"/></radialGradient><radialGradient id="cfg9bufv5z" cx="0" cy="0" r="1" gradientUnits="userSpaceOnUse" gradientTransform="matrix(47.49998 12.99996 -38.03732 138.98289 36 61)"><stop stop-color="#D12A6F"/><stop offset="1" stop-color="#83234B" stop-opacity=".01"/></radialGradient><radialGradient id="i7rzkc8f5L" cx="0" cy="0" r="1" gradientUnits="userSpaceOnUse" gradientTransform="matrix(34.3035 24.94802 -36.18758 49.75788 16.84 43.366)"><stop stop-color="#fff"/><stop offset="1" stop-color="#83234B" stop-opacity=".01"/></radialGradient><radialGradient id="wec7he2oqM" cx="0" cy="0" r="1" gradientUnits="userSpaceOnUse" gradientTransform="rotate(131.398 21.233 36.48) scale(13.4401 16.7504)"><stop stop-color="#fff"/><stop offset="1" stop-color="#83234B" stop-opacity=".01"/></radialGradient><radialGradient id="f9r9oi0wsO" cx="0" cy="0" r="1" gradientUnits="userSpaceOnUse" gradientTransform="matrix(47.49998 12.99996 -38.03732 138.98289 35.976 44.057)"><stop stop-color="#D12A6F"/><stop offset="1" stop-color="#83234B" stop-opacity=".01"/></radialGradient><radialGradient id="gqil327l0W" cx="0" cy="0" r="1" gradientUnits="userSpaceOnUse" gradientTransform="matrix(34.3035 24.94802 -36.18758 49.75788 16.84 26.366)"><stop stop-color="#fff"/><stop offset="1" stop-color="#83234B" stop-opacity=".01"/></radialGradient><radialGradient id="ozeig93cgX" cx="0" cy="0" r="1" gradientUnits="userSpaceOnUse" gradientTransform="rotate(131.398 25.07 27.98) scale(13.4401 16.7504)"><stop stop-color="#fff"/><stop offset="1" stop-color="#83234B" stop-opacity=".01"/></radialGradient><radialGradient id="ypndnwr7oZ" cx="0" cy="0" r="1" gradientUnits="userSpaceOnUse" gradientTransform="matrix(47.49998 12.99996 -38.03732 138.98289 35.976 27.057)"><stop stop-color="#D12A6F"/><stop offset="1" stop-color="#83234B" stop-opacity=".01"/></radialGradient><radialGradient id="bsmb1ijq0ad" cx="0" cy="0" r="1" gradientUnits="userSpaceOnUse" gradientTransform="matrix(17.77543 10.08185 -10.86993 19.1649 23.913 1.719)"><stop stop-color="#fff"/><stop offset="1" stop-color="#83234B" stop-opacity=".01"/></radialGradient><radialGradient id="2nrs9o93mah" cx="0" cy="0" r="1" gradientUnits="userSpaceOnUse" gradientTransform="matrix(32.25036 12.75756 -15.89983 40.19383 21.5 7)"><stop stop-color="#fff"/><stop offset="1" stop-color="#83234B" stop-opacity=".01"/></radialGradient><radialGradient id="3r1dcxw7eaj" cx="0" cy="0" r="1" gradientUnits="userSpaceOnUse" gradientTransform="matrix(47.49998 12.99996 -38.03732 138.98289 35.976 9.057)"><stop stop-color="#D12A6F"/><stop offset="1" stop-color="#83234B" stop-opacity=".01"/></radialGradient><filter id="rkf62gvkmt" x="48.209" y="59.109" width="23.581" height="10.581" filterUnits="userSpaceOnUse" color-interpolation-filters="sRGB"><feFlood flood-opacity="0" result="BackgroundImageFix"/><feColorMatrix in="SourceAlpha" values="0 0 0 0 0 0 0 0 0 0 0 0 0 0 0 0 0 0 127 0" result="hardAlpha"/><feOffset/><feGaussianBlur stdDeviation="1.395"/><feColorMatrix values="0 0 0 0 0.951002 0 0 0 0 0.370525 0 0 0 0 0.610455 0 0 0 1 0"/><feBlend in2="BackgroundImageFix" result="effect1_dropShadow_441_28653"/><feBlend in="SourceGraphic" in2="effect1_dropShadow_441_28653" result="shape"/></filter><filter id="gn96krf0tI" x="48.209" y="41.709" width="23.581" height="10.581" filterUnits="userSpaceOnUse" color-interpolation-filters="sRGB"><feFlood flood-opacity="0" result="BackgroundImageFix"/><feColorMatrix in="SourceAlpha" values="0 0 0 0 0 0 0 0 0 0 0 0 0 0 0 0 0 0 127 0" result="hardAlpha"/><feOffset/><feGaussianBlur stdDeviation="1.395"/><feColorMatrix values="0 0 0 0 0.951002 0 0 0 0 0.370525 0 0 0 0 0.610455 0 0 0 1 0"/><feBlend in2="BackgroundImageFix" result="effect1_dropShadow_441_28653"/><feBlend in="SourceGraphic" in2="effect1_dropShadow_441_28653" result="shape"/></filter><filter id="9ay5dv7dwT" x="40.099" y="22.477" width="39.552" height="15.263" filterUnits="userSpaceOnUse" color-interpolation-filters="sRGB"><feFlood flood-opacity="0" result="BackgroundImageFix"/><feColorMatrix in="SourceAlpha" values="0 0 0 0 0 0 0 0 0 0 0 0 0 0 0 0 0 0 127 0" result="hardAlpha"/><feOffset/><feGaussianBlur stdDeviation="1.741"/><feColorMatrix values="0 0 0 0 0.951002 0 0 0 0 0.370525 0 0 0 0 0.610455 0 0 0 1 0"/><feBlend in2="BackgroundImageFix" result="effect1_dropShadow_441_28653"/><feBlend in="SourceGraphic" in2="effect1_dropShadow_441_28653" result="shape"/></filter><filter id="h0hvn7h0sae" x="47.436" y=".293" width="27.373" height="22.383" filterUnits="userSpaceOnUse" color-interpolation-filters="sRGB"><feFlood flood-opacity="0" result="BackgroundImageFix"/><feColorMatrix in="SourceAlpha" values="0 0 0 0 0 0 0 0 0 0 0 0 0 0 0 0 0 0 127 0" result="hardAlpha"/><feOffset/><feGaussianBlur stdDeviation="4.66"/><feColorMatrix values="0 0 0 0 0.951002 0 0 0 0 0.370525 0 0 0 0 0.610455 0 0 0 1 0"/><feBlend in2="BackgroundImageFix" result="effect1_dropShadow_441_28653"/><feBlend in="SourceGraphic" in2="effect1_dropShadow_441_28653" result="shape"/></filter><filter id="9f774zgcwal" x="20.22" y="9.251" width="79.189" height="19.395" filterUnits="userSpaceOnUse" color-interpolation-filters="sRGB"><feFlood flood-opacity="0" result="BackgroundImageFix"/><feColorMatrix in="SourceAlpha" values="0 0 0 0 0 0 0 0 0 0 0 0 0 0 0 0 0 0 127 0" result="hardAlpha"/><feOffset/><feGaussianBlur stdDeviation="1.741"/><feColorMatrix values="0 0 0 0 0.951002 0 0 0 0 0.370525 0 0 0 0 0.610455 0 0 0 1 0"/><feBlend in2="BackgroundImageFix" result="effect1_dropShadow_441_28653"/><feBlend in="SourceGraphic" in2="effect1_dropShadow_441_28653" result="shape"/></filter><filter id="v4aj397c0an" x="24.008" y="11.977" width="71.611" height="14.919" filterUnits="userSpaceOnUse" color-interpolation-filters="sRGB"><feFlood flood-opacity="0" result="BackgroundImageFix"/><feColorMatrix in="SourceAlpha" values="0 0 0 0 0 0 0 0 0 0 0 0 0 0 0 0 0 0 127 0" result="hardAlpha"/><feOffset/><feGaussianBlur stdDeviation="1.741"/><feColorMatrix values="0 0 0 0 0.951002 0 0 0 0 0.370525 0 0 0 0 0.610455 0 0 0 1 0"/><feBlend in2="BackgroundImageFix" result="effect1_dropShadow_441_28653"/><feBlend in="SourceGraphic" in2="effect1_dropShadow_441_28653" result="shape"/></filter></defs></svg>